<?xml version="1.0" encoding="utf-8"?>
<!-- Generator: Adobe Illustrator 22.0.1, SVG Export Plug-In . SVG Version: 6.00 Build 0)  -->
<svg version="1.1" id="Слой_1" xmlns="http://www.w3.org/2000/svg" xmlns:xlink="http://www.w3.org/1999/xlink" x="0px" y="0px"
	 viewBox="0 0 1450 581.3" style="enable-background:new 0 0 1450 581.3;" xml:space="preserve">
<style type="text/css">
	.st0{fill:#D25942;}
	.st1{fill:#FDFDFD;}
	.st2{fill:#FCFCFC;}
	.st3{fill:#8F8E89;}
	.st4{fill:#92918C;}
	.st5{fill:#8D8C88;}
	.st6{fill:#8E8D89;}
	.st7{fill:#93928D;}
	.st8{fill:#908F8A;}
	.st9{fill:#D05842;}
</style>
<g>
	<path class="st0" d="M720,309.6c3.7,21.8,19,30.5,37.1,36.4c3.6,1.2,7.3,2.3,10.9,3.5c5.5,1.9,11,3.7,16.1,6.7
		c7.5,4.4,11.8,10.5,11.1,19.6c-0.6,8.9-5.3,14.8-13.2,18.4c-14.6,6.7-34,2.4-46.2-10.5c-2.6-2.8-4.1-3.3-6.9-0.3
		c-4.2,4.5-8.8,8.7-13.5,12.6c-2.7,2.3-2.1,3.7,0.1,5.8c16.5,15.2,36.2,20.5,58.1,18.9c11.5-0.8,22-4.4,31.7-11
		c22.1-15.1,29.3-59.9-5.7-76.4c-9.8-4.6-20.3-7.5-30.5-11.1c-4.1-1.4-8.1-2.9-11.9-5.2c-13-8-12.7-25.4,0.5-33.2
		c13.1-7.7,31.5-5.5,43.5,5.8c3,2.8,4.2,2.2,6.4-0.4c3.9-4.6,7.9-9.1,12.2-13.3c2.5-2.5,2-3.8-0.5-5.8c-11.7-8.9-24.9-13.1-39.4-14
		c-2.3-0.1-4.6,0-8.2,0c7.9-8,15-15.3,22.2-22.5c0.5-0.5,1.5-0.5,2.3-0.6c1.2-0.1,2.3,0,3.5,0c214.7,0,429.3,0,644-0.1
		c4.9,0,6.3,1,6.3,6.2c-0.2,68.5-0.2,137-0.1,205.5c0,4.1-0.5,5.6-5.3,5.6c-285.5-0.1-571-0.1-856.5-0.1c-1.2,0-2.3,0-4.9,0
		C629.4,402.9,674.4,356.5,720,309.6z M1196.7,256.1c-24.6-0.1-41.6,4.6-55.3,13.3c-41.1,26-44.5,85.4-19.6,118.6
		c20,26.6,47.7,35.7,79.8,32.1c30.6-3.4,54.1-18.2,66.2-47c12.5-29.7,10.6-59.3-8.8-85.8C1242.3,264.6,1218,256.7,1196.7,256.1z
		 M1050.9,347.6c2.9-0.9,5.4-1.7,7.8-2.6c17.8-6.5,27.5-20.3,28.1-39.7c0.5-17.6-8.7-31.8-25.5-39.3c-8.6-3.8-17.8-5.7-27.2-5.8
		c-18.7-0.3-37.3-0.1-56-0.2c-3,0-4,0.8-4,3.9c0.1,49.8,0.1,99.6,0,149.5c0,2.8,0.7,3.8,3.6,3.7c6.5-0.2,13-0.3,19.5,0
		c4,0.2,5-1,5-5c-0.2-19,0-38-0.2-57c0-4,1.2-5.3,5-4.9c3.1,0.3,6.4,0.3,9.5,0c4.4-0.5,6.8,1.1,8.9,5.1c10.3,19.4,21,38.6,31.6,57.9
		c0.8,1.5,1.2,3.7,3.6,3.7c10.4,0,20.8,0,32,0C1078.4,393.4,1064.7,370.6,1050.9,347.6z M1275.6,260.1c0.4,2.6,1.9,4,3,5.6
		c17.5,26.5,35.1,53,52.7,79.4c1.9,2.8,2.6,5.5,2.6,8.8c-0.1,19.7,0,39.3-0.1,59c0,3.3,0.9,4.3,4.2,4.2c6.5-0.2,13-0.3,19.5,0
		c3.6,0.2,4.4-1.1,4.4-4.5c-0.1-19.5,0-39-0.1-58.5c0-3.6,0.8-6.7,2.9-9.7c17.7-26.4,35.2-52.9,52.7-79.5c0.9-1.4,2.6-2.6,2.2-4.9
		c-8.9,0-17.7,0.1-26.5-0.1c-3.4-0.1-5.3,0.9-7.1,3.9c-9.1,15.5-18.5,30.8-27.8,46.2c-3.1,5.2-6.3,10.3-9.7,15.9
		c-1.1-1.7-1.8-2.7-2.5-3.9c-11.6-19.4-23.2-38.9-34.9-58.2c-1-1.6-1.4-3.8-4.1-3.8C1296.7,260.1,1286.2,260.1,1275.6,260.1z
		 M908,350.9c0-20.7,0.1-41.3-0.1-62c0-3.7,0.9-4.9,4.7-4.8c13.2,0.2,26.3,0,39.5,0.1c2.9,0,4.2-0.6,4.1-3.8c-0.2-5.5-0.2-11,0-16.5
		c0.1-3.1-0.8-4.1-3.9-4c-6.7,0.2-13.3,0.1-20,0.1c-31.3,0-62.7,0.2-94-0.1c-5.4-0.1-6.8,1.6-6.3,6.6c0.4,4.3,0.3,8.7,0,13
		c-0.3,3.7,0.8,4.9,4.6,4.8c12.2-0.3,24.3-0.1,36.5-0.1c8.1,0,7-1.1,7,6.8c0,40,0.1,80-0.1,120c0,5.3,1.5,6.5,6.4,6.1
		c5.6-0.4,11.3-0.3,17,0c3.7,0.2,4.8-0.8,4.8-4.7C907.8,391.9,908,371.4,908,350.9z"/>
	<path class="st1" d="M0,63.7C10.4,42.6,20.5,22.4,30.4,2.1c0.8-1.6,1.7-2.3,3.4-2.1c0.7,0.1,1.3,0,2,0c133.6,0,267.3,0,400.9,0
		c1,0,2,0,3.9,0c-3.7,2.5-6.8,4.4-9.7,6.6c-12.6,9.9-22.7,22-30.8,35.7c-3.1,5.3-6.3,10.6-9.4,15.9c-2.3,3.9-5.4,5.5-10.2,5.5
		c-40.7-0.2-81.3,0-122-0.2c-4.6,0-5.4,1.3-5.4,5.6c0.1,124.8,0.1,249.6,0.1,374.4c0,6.4,0,6.4-6.7,6.4c-21.8,0-43.7-0.1-65.5,0.1
		c-4.4,0.1-5.4-1-5.4-5.4c0.1-125,0.1-250,0.2-374.9c0-5.1-1.3-6.2-6.3-6.2C115,63.7,60.5,63.6,6,63.6C4.5,63.7,2.7,63.7,0,63.7z"/>
	<path class="st1" d="M682.1,231.9c-14.5,15.4-29,30.9-43.7,46.1c-4.2,4.4-9.6,5.7-16,4.3c-45.8-10.1-91.4-20.8-136.6-33.3
		c-21.1-5.8-40.2-15.8-54.9-32.8c-14.7-16.9-21.9-37.1-24.2-59.1c-3-27.6-0.9-54.6,11-80.1c16.3-34.7,44.1-56.8,80.2-67
		c65.9-18.7,128.4-10.1,186,28.1c5.3,3.5,10,7.7,14.4,12.3c1.7,1.9,2.3,3,0.2,5.2c-13,13-25.8,26.1-38.6,39.2
		c-1.2,1.2-2.1,2.2-4,0.5c-30.6-27.5-67.2-35.3-107-33.5c-20.7,0.9-39.2,6.9-54.6,21.1c-20.8,19.2-27.2,49.6-16.2,75.6
		c6.9,16.3,19.9,25.8,36.1,31.5c17,6.1,34.8,8.6,52.2,13c38.5,9.8,77.5,17.5,115.6,29c0.6,0.2,1.2,0.4,1.7,0.6
		C683.2,232.4,682.7,232.1,682.1,231.9z"/>
	<path class="st2" d="M387.8,411.8c14.7-15.1,29-29.8,43.2-44.5c1.4-1.4,2.5-1.7,4.3-0.7c23.9,13,47.8,26,71.8,38.9
		c2.2,1.2,2.1,1.9,0.5,3.5c-13.9,13.6-27.7,27.4-41.6,41c-3.3,3.2-9.3,3.3-14.4,0.2C430.4,437.6,409.4,424.9,387.8,411.8z"/>
	<path class="st3" d="M867.7,558.2c0,6.4-0.1,12.5,0,18.6c0.1,2.9-0.3,4.4-4,4.5c-4,0-3.7-2-3.7-4.7c0-15.7,0-31.3,0.1-47
		c0-1.6-1.4-4.4,2-4.5c2.7-0.1,6.3-1.3,5.2,4.9c5.7-5.1,11.4-7,17.8-5.6c4.2,0.9,7.7,3.1,10.4,6.5c5.8,7.5,5.4,19.4-0.8,26.4
		C888.4,564.7,879.1,565.1,867.7,558.2z M892.1,543.6c0-7.7-5.3-13.5-12.4-13.4c-7,0-12.5,6-12.5,13.5s5.4,13.3,12.5,13.4
		C886.7,557.1,892,551.3,892.1,543.6z"/>
	<path class="st4" d="M256.7,530.7c9.9-8.3,20-8.4,27.1-1.6c7,6.8,7.9,19.2,1.9,27.1c-6.4,8.4-16.2,9.3-28.1,2
		c0,6.6-0.1,12.9,0.1,19.1c0.1,3-0.7,4-3.9,4c-3.4,0.1-3.7-1.4-3.7-4.1c0.1-15.7,0-31.3,0.1-47c0-1.8-1.7-5,2.5-5.1
		C255.9,524.9,258.5,525.1,256.7,530.7z M257.1,543.4c-0.1,7.6,5.2,13.5,12.3,13.6c7.1,0.1,12.5-5.5,12.6-13.2
		c0.1-7.6-5.2-13.6-12.2-13.6C262.7,530.1,257.2,535.9,257.1,543.4z"/>
	<path class="st4" d="M1134.3,529.7c11.2-7.5,20.4-7.3,27.3,0.2c6.4,7,6.8,19.3,0.8,26.7c-6.5,8-15.6,8.7-27.8,1.6
		c0,6.1,0,11.8,0,17.6c0,2.7,1,5.5-3.9,5.5c-4.6,0-3.6-2.8-3.6-5.2c0-15.3-0.1-30.6,0.1-46c0-1.8-1.7-4.9,2.6-5.1
		C1133.2,524.8,1135.1,525.5,1134.3,529.7z M1146.7,530.2c-7,0-12.5,5.8-12.6,13.3c-0.1,7.6,5.3,13.4,12.3,13.5
		c7.1,0.1,12.5-5.6,12.6-13.3C1159.1,536.1,1153.7,530.2,1146.7,530.2z"/>
	<path class="st5" d="M1250.3,542.6c5.9,3.2,7.8,6.5,6.7,11.5c-0.9,4.2-4.9,7.6-10.3,7.9c-6.5,0.4-13,0.1-19.4,0.2
		c-2.2,0-2.8-1-2.8-3c0-10.5,0.1-20.9,0-31.4c0-2.2,0.9-2.9,3-2.8c5.8,0.1,11.6-0.1,17.4,0.1c4.5,0.2,8.6,1.6,10.2,6.5
		C1256.6,536.5,1254.7,540.1,1250.3,542.6z M1238.3,556.1c2.5,0,4.2,0.1,5.8,0c3.1-0.3,5.5-1.6,5.3-5.2c-0.1-3.3-2.5-4.5-5.3-4.7
		c-2.1-0.2-4.3,0.2-6.4-0.1c-4.6-0.7-5.5,1.2-5.7,5.6C1231.6,558.3,1236.1,555.7,1238.3,556.1z M1238.6,540.2c1.5,0,3,0.1,4.5,0
		c2.7-0.2,4.9-1.3,5-4.4c0.1-3.4-2.2-4.6-5.1-4.7c-2.6-0.1-5.3,0-7.9-0.1c-2-0.1-2.9,0.5-3,2.7
		C1231.6,540.2,1231.5,540.2,1238.6,540.2z"/>
	<path class="st6" d="M662.8,542.6c5.3,2.2,7.9,5.7,7,11.1c-0.8,4.7-5.1,8.1-11,8.4c-6.3,0.3-12.6,0.1-18.9,0.2c-2.3,0-2.8-1-2.8-3
		c0.1-10.5,0.1-20.9,0-31.4c0-2.2,1-2.8,3-2.8c5.6,0.1,11.3-0.1,16.9,0.1c4.7,0.2,9.1,1.5,10.7,6.5
		C669.2,536.3,667.5,540.1,662.8,542.6z M653.7,556.2c0.5,0,2.5,0.1,4.5-0.4c3-0.7,4.5-2.7,3.8-5.9c-0.5-2.5-2.5-3.7-4.8-3.7
		c-4.1,0-8.7-1.7-12,0.9c-1.4,1.1-0.7,5.5-0.1,8.1c0.4,1.8,2.9,0.7,4.5,0.9C650.6,556.3,651.4,556.2,653.7,556.2z M650.8,540.2
		c2.1,0,3.6,0.1,5.1,0c2.8-0.1,4.9-1.5,5-4.5s-2-4.4-4.8-4.6c-2-0.1-4,0.1-6-0.2c-4.1-0.6-5.2,0.9-5.4,5.1
		C644.5,542.1,648.6,539.8,650.8,540.2z"/>
	<path class="st3" d="M773.9,536.6c-5.3,7.4-10.8,14.7-15.7,22.4c-2.5,3.9-5.8,3.2-9.1,3.1c-1.9-0.1-1.6-1.8-1.6-3.1
		c0-10.3,0.1-20.6-0.1-31c-0.1-3.5,2.1-3,4.2-3.1c2.5-0.2,3.5,0.6,3.5,3.3c-0.2,7.3-0.1,14.6-0.1,23.4c6.1-8.6,11.5-16.1,16.8-23.5
		c1-1.4,1.8-3,4.1-3.2c5.8-0.5,6.2-0.2,6.2,5.5c0,9.3-0.1,18.6,0,28c0,2.6-0.4,3.9-3.5,3.9s-4-0.9-3.9-4c0.2-7.1,0.1-14.2,0.1-21.3
		C774.6,536.9,774.3,536.8,773.9,536.6z"/>
	<path class="st3" d="M356,550.5c5.2-7.3,10.5-14.4,15.4-21.9c2.1-3.1,4.5-3.9,7.9-3.7c2,0.1,3,0.6,3,2.8c-0.1,10.5-0.1,21,0,31.4
		c0,3.1-1.7,2.9-3.8,3c-2.4,0.1-3.7-0.4-3.6-3.2c0.2-7.3,0.1-14.6,0.1-22.5c-2.7,1.6-3.7,4-5.2,6c-4.1,5.7-8.2,11.3-12,17.2
		c-2.3,3.5-5.5,2.7-8.4,2.3c-3.3-0.4-1.7-3.5-1.8-5.3c-0.2-9.1,0-18.3-0.1-27.5c0-3,0.5-4.4,4.1-4.4c3.4,0,3.7,1.5,3.7,4.2
		c-0.1,7,0,14,0,21C355.4,550.2,355.7,550.4,356,550.5z"/>
	<path class="st6" d="M1423.2,546c-3.7,0-7.3,0.2-11,0c-4.2-0.2-3.9,1.8-2.6,4.5c3.3,7,12.5,8.8,19.2,3.5c1.6-1.3,2.6-2.6,5-0.7
		c2.5,2,2.5,3.3,0.2,5.3c-6.7,5.9-18.7,6.4-25.9,0.8c-7.4-5.7-9.5-17.2-4.7-25.8c4.4-8,14.4-11.7,23.3-8.6
		c7.3,2.5,12.5,11,11.6,18.6c-0.2,2-1.2,2.5-2.9,2.4C1431.2,546,1427.2,546,1423.2,546z M1419.3,540.2c2.5,0,5-0.1,7.5,0
		c3.7,0.3,3.8-1.5,2.7-4.2c-1.6-3.7-4.4-5.7-8.4-6c-4.7-0.3-8.5,1.3-11,5.4c-2.3,3.7-1.7,4.7,2.8,4.8
		C1415,540.3,1417.2,540.2,1419.3,540.2z"/>
	<path class="st7" d="M1364.2,550.6c5.2-7.3,10.6-14.4,15.5-21.8c2-3.1,4.4-4,7.8-3.8c2.3,0.1,3.2,0.7,3.2,3.1
		c-0.1,10.3-0.1,20.6,0,31c0.1,3.4-1.9,3.1-4.2,3.2c-2.5,0.1-3.5-0.6-3.4-3.3c0.2-7.3,0.1-14.6,0.1-23.4c-3.7,5.2-6.8,9.4-9.7,13.6
		c-2.2,3.1-4.7,6.1-6.5,9.4c-2,3.6-4.9,3.9-8.4,3.8c-2.5-0.1-2.5-1.4-2.5-3.2c0-10.3,0.1-20.6,0-31c0-3.1,1.6-3,3.8-3
		c2.3-0.1,3.7,0.3,3.6,3.2c-0.2,7.3-0.1,14.6-0.1,22C1363.5,550.3,1363.8,550.5,1364.2,550.6z"/>
	<path class="st3" d="M449.4,546c-3.7,0-7.3,0.2-11,0c-3.8-0.2-3.7,1.4-2.5,4.1c3.4,7.4,12.5,9.2,19.4,3.9c1.4-1.1,2.2-2.7,4.5-1
		c2.6,2,3,3.3,0.3,5.6c-6.8,6-19,6.3-26.3,0.2c-7.3-6-8.9-17.9-3.6-26.3c5-7.8,15.6-10.8,24.3-6.9c6.4,2.9,10.9,11.5,9.9,18.2
		c-0.3,2.1-1.5,2.2-3.1,2.2C457.4,546,453.4,546,449.4,546z M446.1,540.2c2.5,0,5-0.1,7.5,0c3.1,0.2,3.7-0.9,2.7-3.7
		c-1.7-4.7-5.4-7-11-6.5c-4.5,0.4-9.2,4.3-9.9,8c-0.4,2.1,0.8,2.2,2.2,2.2C440.4,540.2,443.2,540.2,446.1,540.2z"/>
	<path class="st3" d="M977.4,546c-3.8,0-7.7,0.1-11.5,0c-2.7-0.1-3.1,0.9-2.3,3.3c2.7,7.8,12.6,10.2,19.9,4.7
		c1.2-0.9,1.9-2.7,4.1-1.2c2.7,1.9,3.7,3.3,0.6,5.9c-6.9,6-19,6.2-26.3,0.1c-7.1-5.9-8.8-17.6-3.7-26c4.8-7.9,15.3-11.1,24.1-7.4
		c6.5,2.7,10.9,10.7,10.3,17.9c-0.2,2.3-1.3,2.7-3.2,2.6C985.3,546,981.3,546,977.4,546z M973.9,540.2c2.8,0,5.7-0.1,8.5,0
		c2.5,0.1,2.7-1,2.1-3.1c-1.1-3.9-3.6-6.3-7.6-7c-5.1-0.9-10,1.3-12.4,5.5c-1.6,2.8-2.4,5.1,2.4,4.6
		C969.2,540.1,971.5,540.2,973.9,540.2z"/>
	<path class="st5" d="M1291.2,557.2c-6.1,6.2-12.2,7.3-18.9,5c-4.5-1.5-7.2-4.7-7.5-9.6c-0.3-5.1,1.9-8.6,6.5-10.7
		c4.6-2.1,9.6-2.4,14.6-2.8c1.5-0.1,3.7,1,4.3-1.2c0.6-2.4-0.5-4.7-2.6-6c-4.8-3-9.5-2-14.2,0.5c-1.2,0.6-2,2.4-3.8,0.7
		c-2.2-2.2-3.4-4,0.4-5.9c5.4-2.9,11-3.9,16.9-2.7c6.9,1.4,10.7,6.4,10.9,14.1c0.2,6.3,0.2,12.6,0,19c0,1.6,1.7,4.3-1.8,4.6
		C1293.4,562.4,1290.4,562.8,1291.2,557.2z M1283.8,544.9c-2,0.1-5.3,0.3-8.4,2c-1.9,1-3.1,2.6-3.1,4.8c0,2.1,1.1,3.7,3,4.8
		c5.1,2.7,12.2,0.1,14.3-5.2C1291.7,546.2,1290.5,544.6,1283.8,544.9z"/>
	<path class="st7" d="M1106,536.6c-5.3,7.5-10.8,14.8-15.7,22.5c-2.4,3.7-5.4,3.1-8.7,3.1c-2,0-1.8-1.6-1.8-2.9
		c0-10.5,0.1-21-0.1-31.5c0-3.3,2.1-2.6,4-2.8c2.1-0.1,3.4,0.2,3.4,2.9c-0.2,7.4-0.1,14.9-0.1,23.9c6.2-8.6,11.5-16.1,16.9-23.6
		c1-1.4,1.7-3,4-3.2c5.7-0.5,6.3-0.2,6.3,5.5c0,8.8,0,17.7,0,26.5c0,2.4,1.1,5.3-3.5,5.4c-5,0.1-3.7-3-3.7-5.6c-0.1-6.7,0-13.4,0-20
		C1106.7,536.7,1106.4,536.7,1106,536.6z"/>
	<path class="st8" d="M927.4,563.2c-11.5,0-20.1-8.5-20-19.7c0.1-11.3,8.7-19.5,20.3-19.4c11.6,0,20.2,8.5,20,19.7
		C947.6,555.1,939,563.3,927.4,563.2z M927.7,557c7.1-0.1,12.3-5.9,12.2-13.6c-0.1-7.6-5.5-13.3-12.6-13.3
		c-7.1,0.1-12.3,5.9-12.2,13.6C915.2,551.5,920.6,557.1,927.7,557z"/>
	<path class="st8" d="M317.4,563.2c-11.6,0-20.1-8.3-20.1-19.6c0-11.2,8.6-19.6,20.2-19.5c11.7,0,20.1,8.3,20.1,19.6
		C337.4,555.1,329,563.3,317.4,563.2z M305.1,543.8c0.1,7.7,5.4,13.3,12.5,13.2s12.3-6,12.2-13.6c-0.1-7.7-5.5-13.3-12.6-13.3
		C310.1,530.3,305,536,305.1,543.8z"/>
	<path class="st8" d="M1194.2,563.2c-11.5-0.1-20.1-8.5-20-19.7s8.7-19.5,20.3-19.4c11.6,0,20.1,8.4,19.9,19.7
		C1214.4,555.2,1205.9,563.3,1194.2,563.2z M1182.1,543.5c0,7.8,5.1,13.5,12.2,13.5c7.1,0.1,12.4-5.6,12.5-13.3
		c0.1-7.6-5.2-13.4-12.3-13.5C1187.4,530.1,1182.1,535.8,1182.1,543.5z"/>
	<path class="st8" d="M697.8,563.2c-11.7,0-20-8.1-20.1-19.6c0-11.4,8.4-19.6,20.1-19.6c11.6,0,20.2,8.4,20.2,19.6
		C717.9,554.9,709.4,563.2,697.8,563.2z M710.1,543.4c-0.1-7.7-5.5-13.4-12.6-13.2s-12.4,6.1-12.2,13.7c0.2,7.7,5.6,13.3,12.7,13.2
		C705.1,556.9,710.2,551.1,710.1,543.4z"/>
	<path class="st6" d="M509.1,543.6c0,5.2-0.1,10.3,0.1,15.5c0.1,2.9-1.4,3.2-3.7,3.2s-4.2,0-4.1-3.3c0.2-8-0.1-16,0.1-24
		c0.1-3.1-0.9-3.9-3.9-4c-9.7-0.1-9.7-0.2-9.9,9.5c-0.1,5-0.3,10-2.4,14.7c-2.4,5.5-7.1,8.3-12.7,7.5c-1.6-0.2-3.6-0.2-3.2-2.7
		c0.3-1.8-0.2-4.1,3.1-3.9c4.1,0.2,5.7-2.8,6.6-6.2c1.8-6.7,1.1-13.6,1-20.4c0-3.3,0.7-4.7,4.4-4.6c7,0.3,14,0.2,21,0
		c2.8-0.1,3.8,0.8,3.7,3.7C508.9,533.6,509.1,538.6,509.1,543.6z"/>
	<path class="st8" d="M814.4,543.7c0-5.2,0.1-10.3,0-15.5c-0.1-2.3,0.7-3.2,3.1-3.2c9,0.1,18,0.1,26.9,0c2.3,0,3.3,0.7,3.2,3.1
		c-0.1,10.3-0.1,20.6,0,30.9c0.1,3.4-1.8,3.2-4.1,3.2c-2.4,0.1-3.6-0.4-3.5-3.2c0.2-7.8-0.1-15.6,0.1-23.4c0.1-3.3-0.6-4.9-4.3-4.5
		c-3.5,0.3-7,0.2-10.5,0c-2.7-0.2-3.4,0.8-3.4,3.4c0.1,7.8-0.1,15.6,0.1,23.4c0.1,3-0.4,4.5-4,4.4c-3.3-0.1-3.9-1.4-3.8-4.2
		C814.5,553.3,814.4,548.5,814.4,543.7z"/>
	<path class="st7" d="M1310,543.7c0-5.2,0.1-10.3-0.1-15.5c-0.1-2.9,1.2-3.3,3.6-3.2c2.1,0.1,3.8-0.1,3.8,3c0,3.8-1.9,9.2,0.8,10.9
		c4.2,2.6,10,0.7,15.1,0.9c1.9,0.1,2.6-0.9,2.6-2.7c0-2.7,0.1-5.3,0-8c-0.2-2.7,0.3-4.2,3.7-4.2c3.4,0,3.7,1.4,3.7,4.1
		c-0.1,9.6-0.1,19.3,0,28.9c0,2.6,0,4.4-3.5,4.3c-3.2-0.1-3.9-1.1-3.9-4.1c0-3.9,1.8-9-0.8-11.5c-2.6-2.4-7.7-0.3-11.6-0.8
		c-5.1-0.7-7,1.2-6.2,6.2c0.3,1.9-0.1,4,0.1,6c0.2,2.8-0.3,4.2-3.7,4.2c-3.4,0-3.8-1.5-3.7-4.2C1310.1,553.3,1310,548.5,1310,543.7z
		"/>
	<path class="st4" d="M1010.2,542.2c4.4-4.7,8.2-8.1,11.1-12c3.5-4.9,7.9-6,14.3-4.6c-4.3,4.4-8.3,8.5-12.3,12.6
		c-4.5,4.6-4.5,4.6,0.1,9.4c4.4,4.6,8.9,9.3,13.7,14.2c-6,1.2-10.5,0.6-14.2-4.2c-3.4-4.5-7.7-8.3-12.7-13.6c0,5.6-0.2,10,0.1,14.3
		c0.1,2.9-0.5,4.2-3.8,4.1c-2.9-0.1-3.6-1.1-3.6-3.8c0.1-10,0.2-20,0-30c-0.1-3,1.2-3.5,3.8-3.6c2.9-0.1,3.7,0.9,3.6,3.7
		C1010,532.7,1010.2,536.6,1010.2,542.2z"/>
	<path class="st5" d="M532.3,562c-10.8,0.3-10.8,0.3-10.8-10.7c0-7.3,0.1-14.6,0-22c-0.1-3,0.4-4.5,4-4.4c3.4,0.1,3.7,1.4,3.7,4.2
		c0,8.8,0.1,8.8,8.8,9.4c3.7,0.2,7.3,0.7,10.4,3.1c4.1,3.2,4.6,7.6,3.6,12.2c-1.1,5-5,7.4-9.7,8.1C539,562.3,535.6,562,532.3,562z
		 M534.4,556.1c2,0,3.3,0.1,4.6,0c3.2-0.3,5.5-1.8,5.7-5.2c0.2-3.5-1.6-5.7-5.2-6.1c-2.6-0.3-5.3-0.4-8-0.5c-0.7,0-2.1,0.4-2.2,0.7
		c-0.2,3.3-0.8,6.8-0.1,9.9C530,557.6,533.2,555.6,534.4,556.1z"/>
	<path class="st6" d="M579.3,563.2c-9.6,0-16.5-4.6-19.3-12.7c-2.8-8-0.3-17.3,5.8-22.2c6.4-5.2,16.7-5.8,23.4-1.3
		c1.2,0.8,4.7,1.5,2.3,4.1c-1.4,1.5-2.8,4.1-6,1.6c-5.1-3.9-11.2-3-15.2,1.5c-4.3,4.8-4.4,13.4-0.3,18.5c3.8,4.6,9.9,5.7,15.3,2.6
		c1.6-0.9,2.7-2.7,5-0.5c2.5,2.4,2.6,3.7-0.4,5.6C586.4,562.4,582.8,563.4,579.3,563.2z"/>
	<path class="st3" d="M193.4,563.2c-9.6,0-16.7-4.7-19.3-12.7c-2.7-8.2-0.3-17.3,5.9-22.2c6.5-5.2,16.7-5.8,23.4-1.3
		c1.3,0.9,4.2,1.7,2.5,3.8c-1.3,1.6-2.8,4.6-6.4,1.8c-5.1-3.9-11.3-3-15.2,1.6c-4.3,4.9-4.4,13.5-0.2,18.5c3.8,4.6,10,5.7,15.3,2.5
		c1.6-1,2.7-2.6,5-0.5c2.5,2.4,2.5,3.8-0.4,5.5C200.5,562.4,196.9,563.4,193.4,563.2z"/>
	<path class="st6" d="M613.2,525.1c4.5,0,9,0.1,13.5,0c2.2-0.1,2.9,0.7,2.9,2.9s-0.4,3.3-3,3.3c-3.1,0-7.4-1.6-9,0.8
		c-1.6,2.3-0.6,6.4-0.6,9.7c-0.1,5.2,0,10.3,0,15.5c0,2.6,0.7,5.1-3.7,5.2c-4.7,0.1-4-2.6-4-5.4c0-7.3-0.1-14.6,0.1-22
		c0.1-3.1-0.9-4.2-4-3.9c-1.8,0.2-3.7-0.1-5.5,0.1c-2.2,0.2-3.4-0.5-3.3-3c0-2.3,0.7-3.3,3.1-3.2
		C604.2,525.2,608.7,525.1,613.2,525.1z"/>
	<path class="st7" d="M222.1,546.5c0-3.7-0.2-7.3,0.1-11c0.2-3.3-0.6-5-4.3-4.5c-1.8,0.2-3.7-0.1-5.5,0.1c-2.5,0.2-3.1-0.9-3.1-3.2
		c0-2.1,0.8-2.9,2.9-2.9c9.1,0.1,18.3,0.1,27.4,0c2.5,0,2.5,1.4,2.5,3.2c0.1,2-0.5,3.2-2.8,2.9c-0.2,0-0.3,0-0.5,0
		c-9.5,0.5-9.5,0.5-9.5,10.3c0,5.8-0.2,11.6,0.1,17.4c0.1,3.2-1.5,3.4-4,3.4s-3.6-0.5-3.5-3.3C222.3,554.8,222.1,550.7,222.1,546.5z
		"/>
	<path class="st7" d="M1055.8,525.1c4.3,0,8.7,0.1,13,0c2.2-0.1,3.3,0.5,3.3,3c0,2.4-0.9,3.1-3.2,3.1c-3.1,0.1-7.1-1.5-9.1,0.8
		s-0.6,6.4-0.6,9.7c-0.1,5.8-0.2,11.7,0,17.5c0.1,2.9-1.3,3.2-3.6,3.2c-2.2,0-3.8-0.1-3.7-3.1c0.2-8-0.1-16,0.1-24
		c0.1-3.3-1-4.5-4.3-4.1c-1.8,0.2-3.7-0.1-5.5,0.1c-2.4,0.2-3.1-0.7-3.2-3.1c0-2.5,1-3.1,3.3-3
		C1046.8,525.2,1051.3,525.1,1055.8,525.1z"/>
	<path class="st7" d="M406.6,525.1c4.5,0,9,0.1,13.5,0c2.1,0,2.9,0.7,2.9,2.9c0,2.3-0.5,3.3-3,3.3c-3.1,0-7.2-1.5-9.1,0.7
		c-2.1,2.5-0.6,6.7-0.7,10.1c-0.1,5.5-0.1,11,0,16.5c0.1,2.6-0.5,3.8-3.5,3.8c-3.1,0-4-1-3.9-4c0.2-7.6-0.1-15.3,0.1-22.9
		c0.1-3.1-0.6-4.8-4.1-4.3c-1.5,0.2-3,0.1-4.5,0c-2-0.1-4.3,0.8-4.4-2.9c-0.1-4,2.4-3.1,4.6-3.2C398.6,525,402.6,525.1,406.6,525.1z
		"/>
	<path class="st0" d="M1244.7,338.3c0.2,26.4-14.3,48.1-37.3,55.2c-34.6,10.7-67.9-12.2-70.5-48.3c-1.2-17.4,1.8-33.6,13.7-47
		c14.8-16.7,33.8-20.7,54.6-15.5c20.9,5.2,32.7,20,37.8,40.5C1244.3,327.9,1244.3,333,1244.7,338.3z"/>
	<path class="st9" d="M1002.1,305.6c0-6.3,0-12.7,0-19c0-1.8,0-3.3,2.5-3.3c12.4,0.4,25-1.3,37.3,1.8c13.1,3.3,19,12.6,16.2,25.3
		c-1.5,6.8-5.9,11-12,13.7c-6.5,2.9-13.5,3.4-20.5,3.6c-6.3,0.2-12.7-0.2-19,0.1c-3.9,0.2-4.8-1.2-4.6-4.8
		C1002.3,317.2,1002.1,311.4,1002.1,305.6z"/>
</g>
</svg>
