<?xml version="1.0" encoding="utf-8"?><svg xmlns="http://www.w3.org/2000/svg" xmlns:xlink="http://www.w3.org/1999/xlink"><symbol id="arrow-slider-left" viewBox="0 0 19 29" xmlns="http://www.w3.org/2000/svg"><style>.ast0{fill:#fefefe}</style><g transform="translate(-1151 -2465)"><path id="ajpo4a" class="ast0" d="M1166.1 2494l3.9-4.1-10.8-10.4 10.8-10.4-3.9-4.1-12.4 11.9-2.7 2.5 2.7 2.6 12.4 12z"/></g></symbol><symbol viewBox="0 0 19 29" id="arrow-slider-right" xmlns="http://www.w3.org/2000/svg"><defs><path id="ba" d="M1154.93 2465l-3.93 4.1 10.77 10.4-10.77 10.4 3.93 4.1 12.42-11.95 2.65-2.54-2.65-2.56-12.42-11.95z"/></defs><use xlink:href="#ba" transform="translate(-1151 -2465)"/></symbol><symbol id="btn-arrow" viewBox="0 0 11 20" xmlns="http://www.w3.org/2000/svg"><style>.cst0{fill:#fff}</style><path id="c_x38_buya" class="cst0" d="M10.5 8.9L.3 0C.1-.1-.1.1 0 .2l5.8 9c.3.5.3 1 0 1.5l-5.8 9c-.1.1.1.3.3.2L10.5 11c.7-.5.7-1.5 0-2.1z"/></symbol></svg>