<?xml version="1.0" encoding="utf-8"?>
<!-- Generator: Adobe Illustrator 22.0.1, SVG Export Plug-In . SVG Version: 6.00 Build 0)  -->
<svg version="1.1" id="Слой_1" xmlns="http://www.w3.org/2000/svg" xmlns:xlink="http://www.w3.org/1999/xlink" x="0px" y="0px"
	 viewBox="0 0 79 79" style="enable-background:new 0 0 79 79;" xml:space="preserve">
<style type="text/css">
	.st0{fill:#F25B41;}
	.st1{fill:#FEFEFE;}
</style>
<g>
	<g transform="translate(-528 -3730)">
		<g>
			<path id="mgdma" class="st0" d="M588.4,3760.2h-11.6c-1.3,0-2.3-1-2.3-2.3c0-0.1,0-0.3,0-0.4l4.6-25.6c0.2-1.1,1.2-1.9,2.3-1.9
				H600c1.1,0,2.1,0.8,2.3,1.9l4.7,25.6c0.2,1.3-0.6,2.5-1.9,2.7c-0.1,0-0.3,0-0.4,0h-2.3v5.8c0,1.3-1,2.3-2.3,2.3s-2.3-1-2.3-2.3
				v-5.8h-4.7v44.1h11.6c1.3,0,2.3,1,2.3,2.3s-1,2.3-2.3,2.3h-74.4c-1.3,0-2.3-1-2.3-2.3s1-2.3,2.3-2.3h2.3v-39.5
				c0-1.3,1-2.3,2.3-2.3h0h34.8c1.3,0,2.3,1,2.3,2.3c0,0,0,0,0,0v39.5h16.3L588.4,3760.2z M554.7,3804.3h12.8v-20.9h-12.8V3804.3z
				 M537.3,3804.3h12.8v-20.9h-12.8L537.3,3804.3z M537.3,3778.8h30.2v-11.6h-30.2V3778.8z M579.6,3755.6h22.3l-3.8-20.9h-14.7
				L579.6,3755.6z"/>
		</g>
	</g>
	<g transform="translate(-528 -3730)">
		<g>
			<path id="mgdmb" class="st1" d="M552.4,3774.1c-1.3,0-2.3-1-2.3-2.3s1-2.3,2.3-2.3s2.3,1,2.3,2.3S553.7,3774.1,552.4,3774.1z
				 M559.4,3796.2c-1.3,0-2.3-1-2.3-2.3s1-2.3,2.3-2.3l0,0c1.3,0,2.3,1,2.3,2.3S560.7,3796.2,559.4,3796.2z M545.4,3796.2
				c-1.3,0-2.3-1-2.3-2.3s1-2.3,2.3-2.3s2.3,1,2.3,2.3S546.7,3796.2,545.4,3796.2z"/>
		</g>
	</g>
</g>
</svg>
