<?xml version="1.0" encoding="utf-8"?>
<!-- Generator: Adobe Illustrator 22.0.1, SVG Export Plug-In . SVG Version: 6.00 Build 0)  -->
<svg version="1.1" id="Слой_1" xmlns="http://www.w3.org/2000/svg" xmlns:xlink="http://www.w3.org/1999/xlink" x="0px" y="0px"
	 viewBox="0 0 85 85" style="enable-background:new 0 0 85 85;" xml:space="preserve">
<style type="text/css">
	.st0{fill:#FEFEFE;}
	.st1{fill:#F25B41;}
</style>
<g>
	<g transform="translate(-918 -3342)">
		<g>
			<path id="lr5ea" class="st0" d="M950.4,3385.4c-5,0-9.1,4.1-9.1,9.1c0,5,4.1,9.1,9.1,9.1s9.1-4.1,9.1-9.1c0,0,0,0,0,0
				c0-1.2,1-2.2,2.2-2.2s2.2,1,2.2,2.2c0,7.4-6.1,13.4-13.5,13.4c-7.4,0-13.4-6.1-13.4-13.5c0-7.4,6-13.4,13.5-13.4
				c1.2,0,2.2,1,2.2,2.2S951.7,3385.4,950.4,3385.4L950.4,3385.4L950.4,3385.4z M918,3396.4v-3.9c0-2.8,2-5.1,4.7-5.6l3.2-0.6
				c0.4-1.2,0.9-2.4,1.5-3.6l-1.9-2.7c-1.6-2.2-1.3-5.3,0.6-7.2l2.7-2.7c1.9-1.9,5-2.2,7.2-0.6l2.7,1.9c1.2-0.6,2.4-1.1,3.6-1.5
				l0.6-3.2c0.3-1.2,1.4-1.9,2.6-1.6c1.1,0.2,1.8,1.3,1.7,2.4l-0.8,4.5c-0.1,0.8-0.7,1.5-1.6,1.7c-1.8,0.5-3.5,1.2-5.1,2.1
				c-0.7,0.4-1.6,0.4-2.3-0.1l-3.8-2.6c-0.5-0.4-1.3-0.3-1.7,0.2l-2.6,2.7c-0.5,0.5-0.5,1.2-0.1,1.7l2.6,3.8
				c0.5,0.7,0.5,1.6,0.1,2.3c-0.9,1.6-1.6,3.3-2.1,5.1c-0.2,0.8-0.9,1.4-1.7,1.6l-4.5,0.8c-0.6,0.1-1.1,0.7-1.1,1.3v3.8
				c0,0.6,0.5,1.2,1.1,1.3l4.5,0.8c0.8,0.1,1.5,0.8,1.7,1.6c0.5,1.8,1.2,3.5,2.1,5.1c0.4,0.7,0.3,1.6-0.2,2.3l-2.6,3.8
				c-0.4,0.5-0.3,1.3,0.1,1.7l2.7,2.6c0.5,0.5,1.2,0.5,1.7,0.1l3.8-2.6c0.7-0.5,1.6-0.5,2.3-0.1c1.6,0.9,3.3,1.6,5.1,2.1
				c0.8,0.2,1.4,0.9,1.6,1.7l0.8,4.5c0.1,0.6,0.7,1.1,1.3,1.1h3.8c0.6,0,1.2-0.4,1.3-1l0.8-4.5c0.1-0.8,0.8-1.5,1.6-1.7
				c1.8-0.5,3.5-1.2,5.1-2.1c0.7-0.4,1.6-0.4,2.3,0.1l3.8,2.6c0.5,0.4,1.3,0.3,1.7-0.1l2.7-2.7c0.5-0.5,0.5-1.2,0.2-1.7l-2.7-3.8
				c-0.5-0.7-0.5-1.6-0.1-2.3c0.9-1.6,1.6-3.4,2.1-5.2c0.2-0.8,0.9-1.4,1.7-1.6l4.5-0.8l0.2,0c1.2-0.2,2.3,0.7,2.4,1.9
				c0.2,1.2-0.7,2.3-1.9,2.4l0,0l-3.2,0.6c-0.4,1.2-0.9,2.4-1.5,3.6l1.9,2.7c1.6,2.2,1.3,5.3-0.6,7.2l-2.7,2.7c-1.9,2-5,2.2-7.2,0.6
				l-2.7-1.9c-1.2,0.6-2.4,1.1-3.6,1.5l-0.6,3.2c-0.5,2.7-2.8,4.7-5.6,4.7h-3.8c-2.8,0-5.1-2-5.6-4.7l-0.6-3.2
				c-1.2-0.4-2.4-0.9-3.6-1.5l-2.7,1.9c-2.2,1.6-5.3,1.3-7.2-0.6l-2.7-2.7c-1.9-1.9-2.2-5-0.6-7.2l1.9-2.7c-0.6-1.2-1.1-2.4-1.5-3.6
				l-3.2-0.6C920,3401.5,918,3399.2,918,3396.4L918,3396.4z"/>
		</g>
	</g>
	<g transform="translate(-918 -3342)">
		<g>
			<path id="lr5eb" class="st1" d="M1002.8,3372.9l-0.9,3.5c-0.7,2.6-3.1,4.3-5.8,4l-2.7-0.2c-0.6,0.8-1.2,1.5-1.9,2.1
				c-0.7,0.7-1.4,1.3-2.1,1.8l0.2,2.7c0.2,2.6-1.5,5.1-4,5.8l-3.5,0.9c-2.6,0.7-5.2-0.6-6.4-2.9l-1.1-2.4c-1.8-0.2-3.6-0.8-5.3-1.5
				l-2.2,1.5c-2.2,1.5-5.1,1.3-7-0.6l-2.6-2.6c-1.9-1.9-2.1-4.8-0.6-7l1.5-2.2c-0.7-1.7-1.2-3.5-1.4-5.4l-2.4-1.1
				c-2.4-1.1-3.7-3.8-3-6.4l0.9-3.5c0.7-2.6,3.1-4.3,5.8-4l2.7,0.2c1.1-1.5,2.5-2.8,4-4l-0.2-2.6c-0.3-2.7,1.5-5.1,4-5.8l3.5-0.9
				c2.6-0.7,5.2,0.6,6.4,3l1.1,2.4c1.8,0.2,3.7,0.7,5.4,1.4l2.2-1.6c2.2-1.5,5.1-1.3,7,0.6l2.6,2.6c1.9,1.9,2.1,4.8,0.6,7l-1.5,2.2
				c0.7,1.7,1.2,3.5,1.4,5.4l2.4,1.1C1002.3,3367.6,1003.5,3370.3,1002.8,3372.9L1002.8,3372.9z M998.7,3371.7
				c0.1-0.5-0.1-1.1-0.6-1.3l-3.6-1.7c-0.7-0.3-1.2-1-1.2-1.8c-0.1-2.2-0.7-4.3-1.7-6.2c-0.4-0.7-0.3-1.6,0.2-2.2l2.3-3.2
				c0.3-0.5,0.3-1.1-0.1-1.5l-2.6-2.6c-0.4-0.4-1-0.4-1.5-0.1l-3.2,2.2c-0.7,0.5-1.5,0.5-2.2,0.2c-1.9-1-4.1-1.5-6.2-1.7
				c-0.8,0-1.5-0.5-1.8-1.2l-1.7-3.6c-0.2-0.5-0.8-0.8-1.3-0.6l-3.5,0.9c-0.5,0.1-0.9,0.6-0.9,1.2l0.3,3.9c0.1,0.8-0.3,1.6-1,2
				c-1.8,1.2-3.4,2.8-4.6,4.6c-0.4,0.7-1.2,1-2,1l-3.9-0.4c-0.6,0-1.1,0.3-1.2,0.9l-0.9,3.5c-0.1,0.5,0.1,1.1,0.6,1.3l3.6,1.7
				c0.7,0.3,1.2,1,1.2,1.8c0.1,2.2,0.7,4.3,1.7,6.2c0.3,0.7,0.3,1.5-0.2,2.2l-2.2,3.2c-0.3,0.4-0.3,1,0.1,1.4l2.6,2.6
				c0.4,0.4,1,0.5,1.5,0.1l3.2-2.2c0.7-0.5,1.5-0.5,2.2-0.2c2,1,4.1,1.5,6.3,1.7c0.8,0.1,1.5,0.5,1.8,1.2l1.7,3.6
				c0.2,0.5,0.8,0.8,1.3,0.6l3.5-0.9c0.5-0.1,0.9-0.6,0.9-1.2l-0.3-3.9c-0.1-0.8,0.3-1.6,1-2c1.8-1.2,3.4-2.8,4.6-4.6
				c0.4-0.7,1.2-1,2-1l3.9,0.3c0.6,0.1,1.1-0.3,1.2-0.9L998.7,3371.7L998.7,3371.7z M986.5,3367.8c0,5.1-4.2,9.3-9.3,9.3
				c-5.1,0-9.3-4.2-9.3-9.3c0,0,0,0,0,0c0-5.1,4.2-9.3,9.3-9.3C982.3,3358.5,986.5,3362.7,986.5,3367.8z M982.2,3367.8L982.2,3367.8
				c0-2.8-2.2-5-5-5c-2.8,0-5,2.2-5,5c0,2.8,2.2,5,5,5C979.9,3372.8,982.2,3370.6,982.2,3367.8z"/>
		</g>
	</g>
</g>
</svg>
