<?xml version="1.0" encoding="utf-8"?>
<!-- Generator: Adobe Illustrator 22.0.1, SVG Export Plug-In . SVG Version: 6.00 Build 0)  -->
<svg version="1.1" id="Слой_1" xmlns="http://www.w3.org/2000/svg" xmlns:xlink="http://www.w3.org/1999/xlink" x="0px" y="0px"
	 viewBox="0 0 38 51" style="enable-background:new 0 0 38 51;" xml:space="preserve">
<style type="text/css">
	.st0{fill:#F25B41;}
	.st1{fill:#FFFFFF;}
</style>
<g>
	<g transform="translate(-376 -7279)">
		<g>
			<path id="b9eda" class="st0" d="M414,7286.6v20.2c0,0.7-0.5,15.3-18.4,22.2c-0.4,0.1-0.8,0.1-1.2,0
				c-17.9-6.9-18.4-21.6-18.4-22.2v-20.6v-0.1l0-0.2c0,0,0-0.1,0-0.1l0-0.1l0.1-0.1l0.1-0.1l0.1-0.1l0.1-0.1l0.1-0.1l0.1-0.1l0,0
				c5.3-3.7,11.6-5.7,18.1-5.8c6.8,0,13.4,2.1,18.6,5.8C413.9,7285.3,414.1,7286,414,7286.6L414,7286.6z M410.7,7306.8V7287
				c-4.7-3.1-10.3-4.8-16-4.7c-5.3,0-10.8,1.7-15.5,4.8v19.7c0,0.5,0.5,12.8,15.7,19C410.2,7319.6,410.7,7306.9,410.7,7306.8z"/>
		</g>
	</g>
	<g transform="translate(-376 -7279)">
		<g>
			<path id="b9edb" class="st1" d="M396.3,7318.2c-9.3-3.6-9.7-11-9.7-11.4c0-0.9-0.8-1.6-1.7-1.6c-0.9,0-1.6,0.8-1.6,1.6
				c0,0.4,0.4,9.8,11.8,14.3c0.8,0.3,1.8-0.1,2.1-0.9C397.5,7319.4,397.1,7318.5,396.3,7318.2
				C396.3,7318.2,396.3,7318.2,396.3,7318.2L396.3,7318.2z"/>
		</g>
	</g>
</g>
</svg>
