<?xml version="1.0" encoding="utf-8"?>
<!-- Generator: Adobe Illustrator 22.0.1, SVG Export Plug-In . SVG Version: 6.00 Build 0)  -->
<svg version="1.1" id="Слой_1" xmlns="http://www.w3.org/2000/svg" xmlns:xlink="http://www.w3.org/1999/xlink" x="0px" y="0px"
	 viewBox="0 0 76 110" style="enable-background:new 0 0 76 110;" xml:space="preserve">
<style type="text/css">
	.st0{fill:#F25B41;}
	.st1{fill:#DFDFDF;}
</style>
<g>
	<g transform="translate(-529 -3318)">
		<g>
			<path id="qrr0a" class="st0" d="M605,3367v36c0,2.5-1.3,4.8-3.5,6l-31.1,18c-1,0.6-2.2,0.9-3.4,0.9h-0.2c-1.2,0-2.4-0.3-3.4-0.9
				l-31.1-18c-2.2-1.3-3.5-3.6-3.5-6.1v-36c0-2.5,1.3-4.8,3.5-6l31.1-18c2.1-1.2,4.8-1.2,6.9,0l31.1,18
				C603.7,3362.2,605,3364.5,605,3367L605,3367z M553.7,3354l31.1,18l13.3-7.7l-29.9-17.4c-0.7-0.4-1.6-0.4-2.3,0L553.7,3354z
				 M564.7,3386.3l-31-18v34.7c0,0.8,0.4,1.6,1.2,2l29.9,17.4L564.7,3386.3z M580.1,3374.7l-31.1-18l-13.1,7.6l31.1,18L580.1,3374.7
				z M600.4,3368.3l-31.1,18v36l29.9-17.4c0.7-0.4,1.2-1.2,1.2-2V3368.3z M594.4,3384.3v6.7c0,1.2-0.7,2.4-1.7,3l-10.8,6.2
				c-1.7,1-3.8,0.4-4.7-1.3c-0.3-0.5-0.5-1.1-0.5-1.7v-6.7c0-1.2,0.7-2.4,1.7-3l10.8-6.2c1.7-1,3.8-0.4,4.7,1.3
				C594.2,3383.1,594.4,3383.7,594.4,3384.3L594.4,3384.3z M589.7,3386.4l-8.5,4.9v4l8.5-4.9V3386.4z"/>
		</g>
	</g>
	<g transform="translate(-529 -3318)">
		<g>
			<path id="qrr0b" class="st1" d="M565,3320c0-1.1,0.9-2,2-2s2,0.9,2,2v10c0,1.1-0.9,2-2,2s-2-0.9-2-2V3320z M545,3330
				c0-1.1,0.9-2,2-2s2,0.9,2,2v10c0,1.1-0.9,2-2,2s-2-0.9-2-2V3330z M585,3330c0-1.1,0.9-2,2-2s2,0.9,2,2v10c0,1.1-0.9,2-2,2
				s-2-0.9-2-2V3330z"/>
		</g>
	</g>
</g>
</svg>
