<?xml version="1.0" encoding="utf-8"?>
<!-- Generator: Adobe Illustrator 22.0.1, SVG Export Plug-In . SVG Version: 6.00 Build 0)  -->
<svg version="1.1" id="Слой_1" xmlns="http://www.w3.org/2000/svg" xmlns:xlink="http://www.w3.org/1999/xlink" x="0px" y="0px"
	 viewBox="0 0 73 80" style="enable-background:new 0 0 73 80;" xml:space="preserve">
<style type="text/css">
	.st0{fill:#FFFFFF;}
	.st1{fill:#F25B41;}
</style>
<g>
	<g transform="translate(-1326 -3729)">
		<g>
			<path id="rkfua" class="st0" d="M1343.3,3784.8l1.3,2.8c0.3,0.8,1,1.4,1.8,1.7l2.2,0.8l-0.7,1.9c-0.7,1.9,0.2,4,2.1,4.7l1.8,0.7
				l-0.8,2.2c-0.3,0.8-0.3,1.7,0.1,2.5l1.1,2.4c0.3,0.8,0.9,1.3,1.7,1.6l6.9,2.6c1.4,0.5,2.9-0.2,3.4-1.6l2.7-6.9
				c0.3-0.8,0.3-1.6-0.1-2.4l-8.8-19.8c0.5-0.6,0.9-1.2,1.3-1.9c0.6-1,0.3-2.2-0.7-2.8c-0.9-0.6-2.2-0.3-2.8,0.6
				c-0.5,0.8-1.1,1.6-1.8,2.3c-0.6,0.6-0.7,1.5-0.4,2.2l9.1,20.5l-2,5.3l-5.3-2l-0.8-1.7l1.3-3.4c0.5-1.3-0.1-2.7-1.4-3.2
				c0,0,0,0,0,0l-2.9-1.1l1.1-2.8c0.5-1.3-0.1-2.7-1.4-3.2c0,0,0,0,0,0l0,0l-3.4-1.3l-1.6-3.7c-0.3-0.8-1.1-1.2-1.9-1.2
				c-7.7,0.2-14.2-5.8-14.4-13.5c-0.1-2.4,0.4-4.8,1.5-6.9c0.5-1,0.1-2.2-0.9-2.8c-1-0.5-2.2-0.1-2.7,0.9c-4.5,8.9-1,19.8,7.8,24.4
				C1338.1,3784,1340.7,3784.7,1343.3,3784.8L1343.3,3784.8z"/>
		</g>
	</g>
	<g transform="translate(-1326 -3729)">
		<g>
			<path id="rkfub" class="st1" d="M1334.4,3746.9c1.4-11.2,11.6-19.2,22.8-17.8c0,0,0,0,0,0c11.2,1.5,19.1,11.7,17.7,22.9
				l20.8,13.7c0.7,0.5,1.2,1.2,1.4,2l1.7,8.4c0.3,1.5-0.7,3-2.2,3.4l-8.3,1.7c-0.8,0.2-1.7,0-2.4-0.5l-2.5-1.6
				c-0.8-0.5-1.3-1.3-1.5-2.2l-0.6-3l-2.5,0.5c-2.1,0.4-4.1-0.9-4.6-3c0,0,0,0,0,0l-0.5-2.5l-3,0.6h-0.1c-0.9,0.2-1.8,0-2.5-0.5
				l-3.1-2.1c-6.7,4-15.1,3.8-21.6-0.5C1337,3762.4,1333.5,3754.7,1334.4,3746.9L1334.4,3746.9z M1341,3740.5
				c-3.6,5.6-3.5,12.8,0.2,18.3c5.1,7.4,15.2,9.3,22.7,4.3c0,0,0.1,0,0.1-0.1c0.7-0.5,1.6-0.5,2.3,0l4,2.6l4.1-0.8
				c1.4-0.3,2.7,0.6,3,2l0.8,3.8l3.8-0.8l0,0c1.4-0.3,2.7,0.6,3,2c0,0,0,0,0,0l0.9,4.2l2,1.3l6.8-1.4l-1.4-6.8l-21.7-14.3
				c-0.7-0.5-1-1.3-0.9-2.1c1.3-6.6-1.5-13.3-7.1-16.9C1356.1,3730.8,1346,3732.9,1341,3740.5
				C1341.1,3740.5,1341,3740.5,1341,3740.5L1341,3740.5z M1351.1,3754.7c-2.9-1.9-3.7-5.9-1.8-8.8s5.9-3.7,8.8-1.8
				c2.9,1.9,3.7,5.9,1.8,8.8c-1.2,1.8-3.2,2.9-5.3,2.9C1353.3,3755.8,1352.1,3755.4,1351.1,3754.7L1351.1,3754.7z M1352.6,3748.3
				c-0.5,1.1,0,2.5,1.1,3c0.9,0.4,2,0.2,2.7-0.6c0.8-1,0.6-2.4-0.4-3.2c-1-0.8-2.4-0.6-3.2,0.4
				C1352.8,3748,1352.7,3748.1,1352.6,3748.3L1352.6,3748.3z"/>
		</g>
	</g>
</g>
</svg>
