<?xml version="1.0" encoding="utf-8"?>
<!-- Generator: Adobe Illustrator 22.0.1, SVG Export Plug-In . SVG Version: 6.00 Build 0)  -->
<svg version="1.1" id="Слой_1" xmlns="http://www.w3.org/2000/svg" xmlns:xlink="http://www.w3.org/1999/xlink" x="0px" y="0px"
	 viewBox="0 0 58 56" style="enable-background:new 0 0 58 56;" xml:space="preserve">
<style type="text/css">
	.st0{fill:#F25B41;}
	.st1{fill:#FFFFFF;}
</style>
<g>
	<g transform="translate(-369 -7371)">
		<g>
			<path id="swq4a" class="st0" d="M397.5,7395.6l-6.6,6.2c1,2.7,1.1,5.7,0.3,8.5c-0.2,0.8-1,1.3-1.8,1.2c-0.8-0.2-1.3-1-1.2-1.8
				c0-0.1,0-0.1,0.1-0.2c0.7-2.5,0.5-5.1-0.6-7.5c-0.3-0.6-0.1-1.3,0.3-1.8l7.4-6.9c0.9-0.8,0.9-2.2,0.1-3.1l-0.1-0.1
				c-0.8-0.8-2.1-0.9-3-0.1l-11.7,10c-0.6,0.6-1.5,0.5-2.1-0.1c-0.6-0.6-0.5-1.6,0.1-2.1c0,0,0.1-0.1,0.1-0.1l11.7-10
				c2.1-1.7,5.1-1.6,7,0.3c2,2,2,5.3,0,7.3L397.5,7395.6L397.5,7395.6z M394.6,7403.3c0-0.8,0.7-1.5,1.5-1.5h11.8
				c0.8,0,1.5,0.7,1.5,1.5s-0.7,1.5-1.5,1.5h-11.8C395.2,7404.8,394.6,7404.1,394.6,7403.3z M369.9,7425.5v-5.7
				c0-0.8,0.7-1.5,1.5-1.5h1.1V7396c0-3.2,1.3-6.4,3.6-8.7l4.5-4.5v-7.4c0-2,1.6-3.7,3.7-3.7c0,0,0,0,0,0h34c2,0,3.7,1.7,3.7,3.7
				c0,0,0,0,0,0v12.9c0.1,0.8-0.5,1.5-1.4,1.6c-0.8,0.1-1.5-0.5-1.6-1.4c0-0.1,0-0.2,0-0.2v-5.8h-35.4v7.7c0,0.8-0.7,1.5-1.5,1.5
				c-0.8,0-1.5-0.7-1.5-1.5v-3.1l-2.4,2.4c-1.7,1.7-2.7,4.1-2.7,6.5v22.3h19.1v-2.4c0-0.5,0.3-1,0.7-1.3c2.4-1.5,3.9-4,4.3-6.8
				c0.1-0.8,0.8-1.4,1.6-1.4c0.8,0.1,1.4,0.8,1.4,1.6c0,0.1,0,0.1,0,0.2c-0.4,3.4-2.2,6.4-5,8.5v1.6h2.3c0.8,0,1.5,0.7,1.5,1.5v5.7
				c0,0.8-0.7,1.5-1.5,1.5s-1.5-0.7-1.5-1.5v-4.2h-25.4v4.2c0,0.8-0.7,1.5-1.5,1.5S369.9,7426.3,369.9,7425.5z M383.5,7379.6h35.4
				v-4.1c0-0.4-0.3-0.7-0.7-0.7h-34c-0.4,0-0.7,0.3-0.7,0.7V7379.6z M392.8,7423.9c0.8,0,1.5,0.7,1.5,1.5c0,0.8-0.7,1.5-1.5,1.5
				c-0.8,0-1.5-0.7-1.5-1.5C391.3,7424.5,392,7423.9,392.8,7423.9z"/>
		</g>
	</g>
	<g transform="translate(-369 -7371)">
		<g>
			<path id="swq4b" class="st1" d="M416.6,7405.6v2.1h7.5v2.1h-7.5v4.2h-2.1v-4.2h-2.1v-2.1h2.1v-12.7h5.9c3.7,0,5.9,2,5.9,5.3
				s-2.2,5.3-5.9,5.3L416.6,7405.6z M416.6,7403.5h3.7c2.5,0,3.7-1,3.7-3.2s-1.2-3.2-3.7-3.2h-3.7V7403.5z"/>
		</g>
	</g>
</g>
</svg>
