<?xml version="1.0" encoding="utf-8"?>
<!-- Generator: Adobe Illustrator 22.0.1, SVG Export Plug-In . SVG Version: 6.00 Build 0)  -->
<svg version="1.1" id="Слой_1" xmlns="http://www.w3.org/2000/svg" xmlns:xlink="http://www.w3.org/1999/xlink" x="0px" y="0px"
	 viewBox="0 0 101 70" style="enable-background:new 0 0 101 70;" xml:space="preserve">
<style type="text/css">
	.st0{fill:#DFDFDF;}
	.st1{fill:#F25B41;}
</style>
<g>
	<g transform="translate(-1313 -2939)">
		<g>
			<path id="u6gla" class="st0" d="M1340.9,2949.8l-9.7,28.8c-0.4,1.2-1.6,1.8-2.8,1.4l-13.9-4.6c-1.1-0.4-1.8-1.6-1.4-2.8
				c0,0,0,0,0,0l10.7-32.1v0c0.4-1.1,1.6-1.8,2.8-1.4c0,0,0,0,0,0l13.9,4.7c0.8,0.3,1.4,1,1.5,1.8l1.7,0.6c0.3,0.1,0.7,0.1,1-0.1
				l4-2.2c1.3-0.7,2.9-0.8,4.3-0.4l23.5,7.1c0.2,0,0.3,0.1,0.4,0.2c2.9,1.2,4.2,4.4,3.1,7.3c0,0,0,0,0,0l-0.2,0.6
				c-1,2.6-3.9,4.1-6.6,3.4l-11.7-3c-0.5-0.1-1,0.1-1.3,0.5l-3,4.9c-1,1.5-2.6,2.5-4.4,2.6l-12.7,0.9h-0.2c-1.2,0.2-2.3-0.7-2.5-1.9
				s0.7-2.3,1.9-2.5c0.2,0,0.3,0,0.5,0l12.7-0.9c0.4,0,0.7-0.2,0.9-0.6l3-4.9c1.3-2.1,3.8-3.1,6.1-2.5l11.7,3
				c0.6,0.2,1.2-0.2,1.4-0.7l0.2-0.6c0.2-0.6-0.1-1.3-0.7-1.6c0,0-0.1,0-0.1,0l-23.5-7.2c-0.3-0.1-0.6-0.1-0.9,0.1l-4,2.2
				c-1.4,0.7-3.1,0.9-4.5,0.3L1340.9,2949.8z M1337.1,2947.2l-9.8-3.3l-9.4,27.9l9.8,3.3L1337.1,2947.2z"/>
		</g>
	</g>
	<g transform="translate(-1313 -2939)">
		<g>
			<path id="u6glb" class="st1" d="M1412.8,2976.4l-13.2,6.6c-0.3,0.1-0.6,0.2-1,0.2c-4.3,4.8-9.4,8.7-15.1,11.8l-23.9,12.3
				l-0.7,0.4c-0.9,0.6-1.9,1-3,1.2c-1.1,0.1-2.1,0.1-3.2-0.1c-2.8-0.6-4.8-2.3-5.3-4.7l-0.1-0.3c-1,0.1-1.9,0.1-2.9,0
				c-2.4-0.2-4.4-1.9-5.1-4.2c-0.2-0.8-0.3-1.6-0.2-2.3c-0.7-0.2-1.3-0.5-1.9-0.9l-1.1-0.8c-1.8-1.4-2.6-3.8-1.9-6.1
				c0-0.1,0.1-0.1,0.1-0.2c-2.7-1.7-3.5-5.3-1.7-8c0.5-0.8,1.1-1.4,1.9-1.8l0.2-0.1l12.8-5.8c1.1-0.6,2.4-0.2,3,0.9s0.2,2.4-0.9,3
				c-0.1,0.1-0.2,0.1-0.3,0.1l-12.7,5.7c-0.6,0.4-0.8,1.3-0.4,2c0.4,0.6,1.1,0.8,1.7,0.5l17-7.4c1.1-0.4,2.4,0.2,2.8,1.3
				c0.4,1-0.1,2.2-1,2.7l-17,7.4c-0.4,0.2-0.8,0.4-1.3,0.5c0,0.2,0,0.4-0.1,0.6c-0.1,0.5,0,1,0.4,1.3l1.1,0.8
				c0.3,0.3,0.8,0.3,1.2,0.1l19.6-9c1.1-0.5,2.4,0,2.9,1.1c0.5,1.1,0,2.4-1.1,2.9l-19.1,8.8v0.2c0,0.5,0,1,0.1,1.5
				c0.2,0.6,0.8,1,1.4,1.1c3.2,0.4,6.3-1.4,9.4-3.2c0.7-0.4,1.4-0.8,2.1-1.2l7.4-4l0.2-0.1c1.1-0.4,2.4,0.2,2.8,1.3
				c0.4,1,0,2.1-0.9,2.7l-7.4,4c-0.6,0.3-1.3,0.7-2,1.1c-1.6,1-3.3,1.8-5,2.6l0.1,0.6c0.4,0.7,1.1,1.2,1.9,1.3
				c0.6,0.1,1.2,0.1,1.8,0.1c0.5-0.1,1-0.4,1.4-0.7l0.9-0.5l23.9-12.3c5.3-2.9,10-6.7,14.1-11.1l-14.1-28.3c-0.5-1.1-0.1-2.4,1-2.9
				l13.2-6.6c1.1-0.5,2.4-0.1,2.9,1l15.2,30.3C1414.3,2974.5,1413.9,2975.8,1412.8,2976.4z M1408.9,2973.4l-13.2-26.4l-9.2,4.6
				l13.2,26.4L1408.9,2973.4z"/>
		</g>
	</g>
</g>
</svg>
