<?xml version="1.0" encoding="utf-8"?>
<!-- Generator: Adobe Illustrator 22.0.1, SVG Export Plug-In . SVG Version: 6.00 Build 0)  -->
<svg version="1.1" id="Слой_1" xmlns="http://www.w3.org/2000/svg" xmlns:xlink="http://www.w3.org/1999/xlink" x="0px" y="0px"
	 viewBox="0 0 104 104" style="enable-background:new 0 0 104 104;" xml:space="preserve">
<style type="text/css">
	.st0{fill:#F25B41;}
	.st1{fill:#FEFEFE;}
</style>
<g>
	<g transform="translate(-502 -2933)">
		<g>
			<path id="raela" class="st0" d="M529.9,3011c-1,0-1.9-0.8-1.9-1.9l0,0v-74.3c0-1,0.8-1.9,1.9-1.9h74.3c1,0,1.9,0.8,1.9,1.9v74.3
				c0,1-0.8,1.9-1.9,1.9H529.9z M568.9,2973.9v33.4h14.8v-33.4H568.9z M531.7,3007.3h33.4v-70.6h-33.4V3007.3z M602.3,2936.7h-33.4
				v33.4h33.4V2936.7z M602.3,2973.9h-14.8v14.9h14.8V2973.9z M602.3,3007.3v-14.9h-14.8v14.9H602.3z M539.1,3000.8
				c-1,0-1.9-0.8-1.9-1.9v-42.7c0-1,0.8-1.9,1.9-1.9c1,0,1.8,0.8,1.9,1.9v42.7C541,2999.9,540.2,3000.8,539.1,3000.8z M539.1,2950.6
				c-1,0-1.9-0.8-1.9-1.9l0,0v-3.7c0-1,0.8-1.9,1.9-1.9c1,0,1.9,0.8,1.9,1.9c0,0,0,0,0,0v3.7C541,2949.8,540.2,2950.6,539.1,2950.6z
				 M504,2933h12c1.1,0,2,0.9,2,2s-0.9,2-2,2h-12c-1.1,0-2-0.9-2-2S502.9,2933,504,2933z M504,3007h12c1.1,0,2,0.9,2,2s-0.9,2-2,2
				h-12c-1.1,0-2-0.9-2-2S502.9,3007,504,3007z M528,3023c0-1.1,0.9-2,2-2s2,0.9,2,2v12c0,1.1-0.9,2-2,2s-2-0.9-2-2V3023z M602,3023
				c0-1.1,0.9-2,2-2s2,0.9,2,2v12c0,1.1-0.9,2-2,2s-2-0.9-2-2V3023z"/>
		</g>
	</g>
	<g transform="translate(-502 -2933)">
		<g>
			<path id="raelb" class="st1" d="M597.7,3029.6l-4.6,4.4c-0.1,0.1-0.2,0-0.1-0.1l2.3-3.9h-56.5l2.3,3.9c0,0.1-0.1,0.1-0.1,0.1
				l-4.6-4.4c-0.3-0.3-0.3-0.8,0-1.1c0,0,0,0,0,0l4.6-4.4c0.1-0.1,0.2,0,0.1,0.1l-2.3,3.9h56.5l-2.3-3.9c0-0.1,0.1-0.1,0.1-0.1
				l4.6,4.4C598.1,3028.8,598.1,3029.2,597.7,3029.6z M510.5,2941.2l4.4,4.6c0,0.1,0,0.2-0.1,0.1l-3.9-2.3v56.6l3.9-2.3
				c0.1,0,0.1,0.1,0.1,0.1l-4.4,4.6c-0.3,0.3-0.8,0.3-1.1,0c0,0,0,0,0,0l-4.4-4.6c-0.1-0.1,0-0.2,0.1-0.1l3.9,2.3v-56.6l-3.9,2.3
				c-0.1,0.1-0.1-0.1-0.1-0.1l4.4-4.6C509.7,2941,510.2,2940.9,510.5,2941.2C510.5,2941.2,510.5,2941.2,510.5,2941.2L510.5,2941.2z"
				/>
		</g>
	</g>
</g>
</svg>
